<svg width="36" height="36" viewBox="0 0 36 36" fill="none" xmlns="http://www.w3.org/2000/svg">
<g clip-path="url(#clip0)">
<path d="M18 31.7812C17.7087 31.7812 17.4726 32.0174 17.4726 32.3086C17.4726 32.5998 17.7087 32.8359 18 32.8359C18.2912 32.8359 18.5273 32.5998 18.5273 32.3086C18.5273 32.0174 18.2912 31.7812 18 31.7812ZM18 28.6172C17.7087 28.6172 17.4726 28.8533 17.4726 29.1445C17.4726 29.4358 17.7087 29.6719 18 29.6719C18.2912 29.6719 18.5273 29.4358 18.5273 29.1445C18.5273 28.8533 18.2912 28.6172 18 28.6172ZM18 34.9453C17.7087 34.9453 17.4726 35.1814 17.4726 35.4727C17.4726 35.7639 17.7087 36 18 36C18.2912 36 18.5273 35.7639 18.5273 35.4727C18.5273 35.1814 18.2912 34.9453 18 34.9453ZM28.3599 24.1265L26.0126 23.3366C27.3103 22.4123 28.1236 20.8954 28.1236 19.258C28.1269 19.2512 28.1236 10.1237 28.1236 10.1237C28.1236 7.42043 27.0706 4.87828 25.1587 2.96564C23.2464 1.05321 20.704 0 18 0C16.2631 0 14.5495 0.447398 13.0443 1.29389C12.7905 1.43663 12.7004 1.75816 12.8432 2.01199C12.9859 2.26589 13.3075 2.35582 13.5613 2.21316C14.909 1.45533 16.4438 1.05469 18 1.05469C20.4223 1.05469 22.6998 1.99814 24.4129 3.71123C26.1256 5.42468 27.0689 7.70196 27.0689 10.1236V10.126C26.7626 9.9502 26.4082 9.84909 26.0305 9.84909H25.5238C24.1129 9.6068 22.729 9.20693 21.4101 8.65955C20.4063 8.24294 19.4309 7.73677 18.5109 7.15514C18.1888 6.95138 17.7684 6.97029 17.465 7.20218C16.7473 7.75041 15.9724 8.22452 15.1615 8.61124C13.7045 9.30607 12.1367 9.72239 10.5015 9.84909H9.96951C9.59179 9.84909 9.23741 9.9502 8.93113 10.126V10.1236C8.93113 7.66983 9.89554 5.37152 11.6467 3.6521C11.8546 3.44805 11.8576 3.11421 11.6536 2.90637C11.4496 2.69859 11.1157 2.69543 10.9078 2.89955C8.953 4.81887 7.87644 7.3845 7.87644 10.1236V19.2579C7.87644 20.8953 8.68975 22.4123 9.98737 23.3365L7.63998 24.1265C5.70639 24.7773 4.40723 26.5851 4.40723 28.6249V35.4727C4.40723 35.7639 4.64334 36 4.93457 36C5.2258 36 5.46191 35.7639 5.46191 35.4727V28.6249C5.46191 27.0384 6.47245 25.6323 7.97643 25.1261L8.89288 24.8177C8.75725 25.3751 8.69727 25.9496 8.71837 26.5184C8.73834 27.0584 8.82946 27.5891 8.98717 28.1039C7.96279 28.4115 7.2141 29.3626 7.2141 30.4859V32.632C7.2141 33.163 7.64603 33.5948 8.17689 33.5948H8.76787C9.0591 33.5948 9.29521 33.3587 9.29521 33.0675C9.29521 32.7762 9.0591 32.5401 8.76787 32.5401H8.26872V30.4858C8.26872 29.6964 8.91067 29.0542 9.69993 29.0537C9.70035 29.0537 9.7007 29.0538 9.70112 29.0538C9.70155 29.0538 9.70197 29.0537 9.70239 29.0537C10.4914 29.0545 11.1331 29.6966 11.1331 30.4858V32.5401H10.634C10.3428 32.5401 10.1067 32.7762 10.1067 33.0675C10.1067 33.3587 10.3428 33.5948 10.634 33.5948H11.225C11.7559 33.5948 12.1878 33.1629 12.1878 32.632V30.4859C12.1878 29.2408 11.268 28.2066 10.0723 28.0268C9.89336 27.5277 9.79183 27.0087 9.77221 26.4793C9.74626 25.7773 9.86882 25.0642 10.1269 24.4024L13.7241 23.1919L17.4986 26.9662C17.8069 27.2775 18.3327 27.279 18.6421 26.9662L19.6838 25.9246C19.8898 25.7186 19.8898 25.3847 19.6838 25.1788C19.4779 24.9729 19.144 24.9729 18.9381 25.1788L18.0703 26.0464L14.7276 22.7037C15.2232 22.2728 15.449 21.616 15.3984 20.9533C16.2061 21.235 17.0717 21.3896 17.9718 21.3928C18.8789 21.396 19.7673 21.2479 20.6015 20.962C20.5154 21.6345 20.827 22.3664 21.3502 22.7665L20.6746 23.4421C20.4686 23.6481 20.4686 23.982 20.6746 24.1879C20.8805 24.3938 21.2144 24.3938 21.4203 24.1879L22.381 23.2272L25.5924 24.3079C25.8352 24.9255 25.9606 25.5935 25.9543 26.2546C25.9487 26.854 25.8342 27.4592 25.6231 28.0235C24.2522 28.2029 23.19 29.3778 23.19 30.7968C23.19 32.3396 24.4452 33.5947 25.988 33.5947C27.5308 33.5947 28.7859 32.3397 28.7859 30.7969C28.7859 29.5053 27.906 28.4158 26.7144 28.0951C26.9021 27.5034 27.0032 26.8814 27.009 26.2647C27.014 25.7484 26.9522 25.2285 26.8288 24.7239L28.0236 25.126C29.5276 25.6322 30.5381 27.0383 30.5381 28.6249V35.4726C30.5381 35.7638 30.7742 35.9999 31.0654 35.9999C31.3567 35.9999 31.5928 35.7638 31.5928 35.4726V28.6249C31.5928 26.5851 30.2936 24.7774 28.3599 24.1265ZM26.0034 10.9038H26.0305C26.6018 10.9038 27.0666 11.3676 27.0689 11.9383V11.9464C27.0663 12.5248 26.5844 12.9975 26.0034 12.9809V10.9038ZM8.93106 11.9384C8.93275 11.3596 9.41615 10.8875 9.99651 10.9039V12.981C9.41551 12.9971 8.93352 12.5262 8.93106 11.9465V11.9384ZM14.3437 21.2393C14.3437 21.6172 14.1034 21.9518 13.7452 22.0719L11.3258 22.8862C9.88633 22.2699 8.93113 20.8346 8.93113 19.258V13.7589C9.26202 13.9501 9.62772 14.0422 10.0294 14.0358C10.2798 16.8503 11.9675 19.2578 14.3437 20.4974V21.2393ZM17.9754 20.3381C14.1574 20.3249 11.0512 17.1713 11.0512 13.3083V10.857C12.6475 10.6817 14.1807 10.2473 15.6155 9.5632C16.4635 9.15884 17.275 8.66609 18.0291 8.09803C18.9756 8.68999 19.9766 9.20651 21.0058 9.63366C22.2733 10.1598 23.5978 10.5571 24.9487 10.8169V13.3894C24.9487 15.25 24.2228 16.998 22.9049 18.3114C21.5645 19.6472 19.8902 20.3448 17.9754 20.3381ZM24.6742 22.8861L22.2542 22.0717C21.8965 21.9518 21.6562 21.6172 21.6562 21.2393V20.5128C22.3823 20.1391 23.0543 19.6516 23.6494 19.0585C25.0138 17.6989 25.8268 15.9348 25.9775 14.0356C26.3653 14.0412 26.7513 13.9433 27.0689 13.7587V19.2578C27.0689 20.8346 26.1137 22.2699 24.6742 22.8861ZM27.7312 30.7969C27.7312 31.7581 26.9492 32.5401 25.988 32.5401C25.0268 32.5401 24.2448 31.7581 24.2448 30.7969C24.2448 29.8363 25.0257 29.0548 25.986 29.0537C25.9866 29.0537 25.9871 29.0538 25.9877 29.0538C25.9882 29.0538 25.9887 29.0537 25.9892 29.0537C26.9498 29.0543 27.7312 29.836 27.7312 30.7969ZM21.4099 11.334C21.1187 11.334 20.8826 11.5701 20.8826 11.8613V13.0676C20.8826 13.3589 21.1187 13.595 21.4099 13.595C21.7011 13.595 21.9373 13.3589 21.9373 13.0676V11.8613C21.9373 11.5701 21.7011 11.334 21.4099 11.334ZM18.7487 16.3443C18.63 16.4286 18.381 16.5718 18.0464 16.5838C17.6689 16.5969 17.3854 16.4393 17.2507 16.3439C17.0131 16.1755 16.6839 16.2316 16.5155 16.4693C16.3471 16.7069 16.4033 17.0361 16.641 17.2045C16.8743 17.3699 17.3539 17.6393 18.0004 17.6393C18.5668 17.6393 19.0927 17.3936 19.3595 17.2041C19.5969 17.0355 19.6527 16.7063 19.484 16.4688C19.3154 16.2314 18.9862 16.1756 18.7487 16.3443ZM14.59 11.334C14.2988 11.334 14.0627 11.5701 14.0627 11.8613V13.0676C14.0627 13.3589 14.2988 13.595 14.59 13.595C14.8813 13.595 15.1174 13.3589 15.1174 13.0676V11.8613C15.1174 11.5701 14.8813 11.334 14.59 11.334Z" fill="#333333"/>
</g>
<defs>
<clipPath id="clip0">
<rect width="36" height="36" fill="white"/>
</clipPath>
</defs>
</svg>
