<svg xmlns="http://www.w3.org/2000/svg" viewBox="0 0 30.14 36.98"><g id="Layer_2" data-name="Layer 2"><g id="Layer_3" data-name="Layer 3"><path d="M30.14,9.41v24A3.55,3.55,0,0,1,26.59,37H10.35A3.55,3.55,0,0,1,6.8,33.43V17.81A8.76,8.76,0,0,0,8.35,18c.38,0-.72,0-.35-.07V33.43C8,35,8,35,10.35,36H26.59A2.26,2.26,0,0,0,29,33.43v-24A2.32,2.32,0,0,0,26.59,7H17.78c0-.92-.14-.28-.39-1.12h9.2A3.55,3.55,0,0,1,30.14,9.41ZM8.39,16.78a8.39,8.39,0,1,1,8.39-8.39A8.39,8.39,0,0,1,8.39,16.78Zm0-1.78A6.61,6.61,0,1,0,1.78,8.39,6.61,6.61,0,0,0,8.39,15Zm5-5.72a.89.89,0,1,0,0-1.78H9.28V4A.89.89,0,0,0,7.5,4V8.39a.89.89,0,0,0,.89.89Zm10.27,7.21H14.05a.89.89,0,0,0,0,1.78h9.64a.89.89,0,1,0,0-1.78Zm0,5.4H14.07a.89.89,0,1,0,0,1.77H23.7a.89.89,0,1,0,0-1.77Zm0,5.61H14.07a.89.89,0,0,0,0,1.78H23.7a.89.89,0,1,0,0-1.78Z" style="fill:#8c8c8c"/></g></g></svg>