<svg width="56" height="56" viewBox="0 0 56 56" fill="none" xmlns="http://www.w3.org/2000/svg">
    <rect y="6.10352e-05" width="56" height="56" rx="20" fill="white"/>
    <path d="M28 32.9376C31.3138 32.9376 34 30.5031 34 27.5001V18.4376C34 15.4345 31.3138 13.0001 28 13.0001C24.6862 13.0001 22 15.4345 22 18.4376V27.5001C22 30.5031 24.6862 32.9376 28 32.9376ZM38 23.8751H37C36.4475 23.8751 36 24.2806 36 24.7813V27.5001C36 31.7368 31.9694 35.1364 27.2006 34.7149C23.0444 34.3473 20 30.9614 20 27.1772V24.7813C20 24.2806 19.5525 23.8751 19 23.8751H18C17.4475 23.8751 17 24.2806 17 24.7813V27.056C17 32.1333 20.9981 36.6594 26.5 37.347V39.2813H23C22.4475 39.2813 22 39.6869 22 40.1876V41.0938C22 41.5945 22.4475 42.0001 23 42.0001H33C33.5525 42.0001 34 41.5945 34 41.0938V40.1876C34 39.6869 33.5525 39.2813 33 39.2813H29.5V37.3686C34.8569 36.7025 39 32.5354 39 27.5001V24.7813C39 24.2806 38.5525 23.8751 38 23.8751Z" fill="#F48073"/>
</svg>