<svg xmlns="http://www.w3.org/2000/svg" viewBox="0 0 49.99 45.25"><g id="Layer_2" data-name="Layer 2"><g id="Layer_3" data-name="Layer 3"><path d="M36.32,0A13.86,13.86,0,0,0,25,5.35,13.91,13.91,0,0,0,14.11,0h-.06A13.76,13.76,0,0,0,4.3,4.17a15.11,15.11,0,0,0-.17,20.94l9.66,10a.83.83,0,0,0,.59.25.82.82,0,0,0,.56-.23A.8.8,0,0,0,15,34L5.3,24A13.49,13.49,0,0,1,5.46,5.31a12.13,12.13,0,0,1,8.6-3.68h0A12.34,12.34,0,0,1,24.32,7.18a.79.79,0,0,0,.67.36.81.81,0,0,0,.68-.36,12.3,12.3,0,0,1,10.6-5.54.82.82,0,0,0,0-1.63Z" style="fill:#fff"/><path d="M50,14.33A14.7,14.7,0,0,0,40.34.76.82.82,0,0,0,39.8,2.3a13.06,13.06,0,0,1,8.55,12.07,13.3,13.3,0,0,1-3.54,9.47l0,0,0,0-.22.23L26.35,43a1.89,1.89,0,0,1-1.36.59A1.85,1.85,0,0,1,23.64,43l-5.86-6.09a.82.82,0,0,0-1.18,1.13l5.86,6.09a3.48,3.48,0,0,0,5.06,0l18.19-18.9L46,25,46,25l0,0A14.89,14.89,0,0,0,50,14.33Z" style="fill:#fff"/></g></g></svg>