<svg xmlns="http://www.w3.org/2000/svg" viewBox="0 0 35.02 35.02">
    <g id="Layer_2" data-name="Layer 2">
        <g id="Layer_3" data-name="Layer 3">
            <path
                d="M31.55,7.05a.52.52,0,1,0-.83.62,16.46,16.46,0,0,1-1.57,21.48,16.45,16.45,0,0,1-23.29,0A16.47,16.47,0,0,1,29,5.7.52.52,0,0,0,29.71,5a17.49,17.49,0,0,0-24.58.17,17.5,17.5,0,0,0,0,24.76A17.51,17.51,0,0,0,35,17.51,17.36,17.36,0,0,0,31.55,7.05Z"
                style="fill:#fff" />
            <path
                d="M17.48,8.09A4.47,4.47,0,1,0,22,12.56,4.47,4.47,0,0,0,17.48,8.09Zm0,7.9a3.43,3.43,0,1,1,3.44-3.43A3.44,3.44,0,0,1,17.48,16Z"
                style="fill:#fff" />
            <path
                d="M21.3,18h-8a5.28,5.28,0,0,0-3.26,1.14.52.52,0,1,0,.64.81,4.15,4.15,0,0,1,2.62-.91h8a4.2,4.2,0,0,1,4.2,4.2v2.55H23.16V23.36a.52.52,0,1,0-1,0v2.47H12.6V23.36a.52.52,0,1,0-1,0v2.47H9.11V23.27a4.2,4.2,0,0,1,.52-2,.52.52,0,0,0-.2-.71.51.51,0,0,0-.7.2,5.26,5.26,0,0,0-.66,2.54v2.54a1,1,0,0,0,1,1.05H25.49a1,1,0,0,0,1.05-1.05V23.27A5.25,5.25,0,0,0,21.3,18Z"
                style="fill:#fff" />
        </g>
    </g>
</svg>