<svg xmlns="http://www.w3.org/2000/svg" viewBox="0 0 42.63 47.37"><g id="Layer_2" data-name="Layer 2"><g id="Layer_3" data-name="Layer 3"><path d="M33.8,23.26h3.31a1.35,1.35,0,0,0,1.35-1.35V18.6a1.36,1.36,0,0,0-1.35-1.35H33.8a1.36,1.36,0,0,0-1.35,1.35v3.31A1.35,1.35,0,0,0,33.8,23.26Zm0-4.62h3.23v3.24H33.84Zm0,13.41h3.31a1.36,1.36,0,0,0,1.35-1.35V27.39A1.36,1.36,0,0,0,37.11,26H33.8a1.36,1.36,0,0,0-1.35,1.35V30.7A1.36,1.36,0,0,0,33.8,32.05Zm0-4.62h3.23v3.23H33.84Zm-9.46-4.17h3.3A1.34,1.34,0,0,0,29,21.91V18.6a1.35,1.35,0,0,0-1.35-1.35h-3.3A1.36,1.36,0,0,0,23,18.6v3.31A1.35,1.35,0,0,0,24.38,23.26Zm0-4.62h3.24v3.24H24.41ZM8.82,34.42H5.52a1.35,1.35,0,0,0-1.36,1.35v3.3a1.36,1.36,0,0,0,1.36,1.36h3.3a1.36,1.36,0,0,0,1.36-1.36v-3.3A1.35,1.35,0,0,0,8.82,34.42Zm0,4.62H5.55V35.8H8.79Zm0-21.79H5.52A1.36,1.36,0,0,0,4.16,18.6v3.31a1.35,1.35,0,0,0,1.36,1.35h3.3a1.35,1.35,0,0,0,1.36-1.35V18.6A1.36,1.36,0,0,0,8.82,17.25Zm0,4.63H5.55V18.64H8.79Zm15.59,10h3.3A1.35,1.35,0,0,0,29,30.49v-3.3a1.35,1.35,0,0,0-1.35-1.36h-3.3A1.36,1.36,0,0,0,23,27.19v3.3A1.36,1.36,0,0,0,24.38,31.85Zm0-4.63h3.24v3.24H24.41Zm14.74-24h-3V2.11A2.12,2.12,0,0,0,34.08,0h-.32a2.11,2.11,0,0,0-2.11,2.11V3.17H11V2.11A2.12,2.12,0,0,0,8.87,0H8.55A2.12,2.12,0,0,0,6.44,2.11V3.17h-3A3.48,3.48,0,0,0,0,6.64V43.9a3.48,3.48,0,0,0,3.47,3.47H39.16a3.48,3.48,0,0,0,3.47-3.47V6.64a3.48,3.48,0,0,0-3.48-3.47ZM33,2.11a.73.73,0,0,1,.73-.72h.32a.72.72,0,0,1,.72.72V3.17H33Zm-25.2,0a.72.72,0,0,1,.72-.72h.32a.72.72,0,0,1,.72.72V3.17H7.83V2.11ZM41.24,43.9A2.08,2.08,0,0,1,39.16,46H3.47A2.08,2.08,0,0,1,1.39,43.9h0a3.43,3.43,0,0,0,2.08.7H31.61a3.43,3.43,0,0,0,2.45-1l7.18-7.17Zm-7.89-1.58a2.69,2.69,0,0,0,.09-.7V37A1.59,1.59,0,0,1,35,35.4h4.63a3.19,3.19,0,0,0,.7-.08Zm7.89-29.23H11.67a.69.69,0,0,0,0,1.38H41.24v18A1.59,1.59,0,0,1,39.65,34H35a3,3,0,0,0-3,3v4.63a1.58,1.58,0,0,1-1.58,1.58h-27a2.08,2.08,0,0,1-2.08-2.08V14.47H8.9a.69.69,0,0,0,0-1.38H1.39V6.64A2.08,2.08,0,0,1,3.47,4.56h3v2A2.12,2.12,0,0,0,8.55,8.71a.7.7,0,0,0,0-1.39.72.72,0,0,1-.72-.72v-2H31.65v2a2.11,2.11,0,0,0,2.11,2.11.7.7,0,0,0,0-1.39A.73.73,0,0,1,33,6.6v-2h6.12a2.09,2.09,0,0,1,2.09,2.08ZM8.82,25.83H5.52a1.36,1.36,0,0,0-1.36,1.36v3.3a1.36,1.36,0,0,0,1.36,1.36h3.3a1.36,1.36,0,0,0,1.36-1.36v-3.3A1.36,1.36,0,0,0,8.82,25.83Zm0,4.63H5.55V27.22H8.79ZM15,23.26h3.3a1.35,1.35,0,0,0,1.36-1.35V18.6a1.36,1.36,0,0,0-1.36-1.35H15a1.36,1.36,0,0,0-1.36,1.35v3.31A1.35,1.35,0,0,0,15,23.26Zm0-4.62h3.24v3.24H15ZM24.41,39a.7.7,0,0,0-1.39,0,1.36,1.36,0,0,0,1.35,1.36h3.31A1.35,1.35,0,0,0,29,39.07v-3.3a1.34,1.34,0,0,0-1.35-1.35H24.37A1.35,1.35,0,0,0,23,35.77v.95a.7.7,0,1,0,1.39,0V35.8h3.24V39ZM15,31.85h3.3a1.36,1.36,0,0,0,1.36-1.36v-3.3a1.36,1.36,0,0,0-1.36-1.36H15a1.36,1.36,0,0,0-1.36,1.36v3.3A1.36,1.36,0,0,0,15,31.85Zm0-4.63h3.24v3.24H15Zm0,13.21h3.3a1.36,1.36,0,0,0,1.36-1.36v-3.3a1.35,1.35,0,0,0-1.36-1.35H15a1.35,1.35,0,0,0-1.36,1.35v3.3A1.36,1.36,0,0,0,15,40.43Zm0-4.63h3.24V39H15Z" style="fill:#fff"/></g></g></svg>