<svg xmlns="http://www.w3.org/2000/svg" viewBox="0 0 35.95 47.95"><g id="Layer_2" data-name="Layer 2"><g id="Layer_3" data-name="Layer 3"><path d="M33.66,3.26h-1v-1A2.3,2.3,0,0,0,30.4,0H5.75a.67.67,0,0,0-.48.2L.21,5.1A.75.75,0,0,0,0,5.61V32.48a.7.7,0,0,0,.7.71.7.7,0,0,0,.7-.71V6.31H5.13a1.3,1.3,0,0,0,.93-.38A1.35,1.35,0,0,0,6.45,5V1.4H23.3V8.69a2.12,2.12,0,0,0,4.24,0V5.07a.7.7,0,0,0-1.4,0V8.69a.72.72,0,1,1-1.44,0V1.4h5.7a.89.89,0,0,1,.89.89v10.4a.7.7,0,0,0,1.4,0v-8h1a.88.88,0,0,1,.88.89V45.66a.88.88,0,0,1-.88.88H5.55a.89.89,0,0,1-.89-.88v-1H30.4a2.3,2.3,0,0,0,2.29-2.29V15.93a.7.7,0,1,0-1.4,0V42.4a.89.89,0,0,1-.89.89H2.29a.89.89,0,0,1-.89-.89V35.75a.7.7,0,0,0-.7-.7.7.7,0,0,0-.7.7V42.4a2.3,2.3,0,0,0,2.29,2.29h1v1A2.29,2.29,0,0,0,5.55,48H33.66A2.3,2.3,0,0,0,36,45.66V5.55a2.29,2.29,0,0,0-2.29-2.29ZM5,4.92H2.43L4.16,3.22l.89-.85Z" style="fill:#fff"/><path d="M13.79,25H5.66a.7.7,0,0,0,0,1.4h8.13a.7.7,0,1,0,0-1.4Z" style="fill:#fff"/><path d="M18,26.36H27A.7.7,0,1,0,27,25H18a.7.7,0,1,0,0,1.4Z" style="fill:#fff"/><path d="M13.79,28.75H5.66a.7.7,0,0,0,0,1.4h8.13a.7.7,0,1,0,0-1.4Z" style="fill:#fff"/><path d="M27,28.75H18a.7.7,0,1,0,0,1.4H27a.7.7,0,1,0,0-1.4Z" style="fill:#fff"/><path d="M13.79,32.54H5.66a.7.7,0,1,0,0,1.4h8.13a.7.7,0,0,0,0-1.4Z" style="fill:#fff"/><path d="M27,32.54H18a.7.7,0,1,0,0,1.4H27a.7.7,0,1,0,0-1.4Z" style="fill:#fff"/><path d="M13.79,36.33H5.66a.7.7,0,0,0,0,1.4h8.13a.7.7,0,0,0,0-1.4Z" style="fill:#fff"/><path d="M27,36.33H18a.7.7,0,1,0,0,1.4H27a.7.7,0,1,0,0-1.4Z" style="fill:#fff"/><path d="M19,16.23l-2-1.48v-3a.55.55,0,0,0-.55-.55.54.54,0,0,0-.55.55V15a.53.53,0,0,0,.22.44l2.2,1.65a.51.51,0,0,0,.33.11.53.53,0,0,0,.44-.22A.56.56,0,0,0,19,16.23Z" style="fill:#fff"/><path d="M16.44,7.87A7.11,7.11,0,1,0,23.55,15,7.12,7.12,0,0,0,16.44,7.87Zm0,13.12a6,6,0,1,1,6-6A6,6,0,0,1,16.44,21Z" style="fill:#fff"/></g></g></svg>