<svg xmlns="http://www.w3.org/2000/svg" viewBox="0 0 32.18 34.29"><g id="Layer_2" data-name="Layer 2"><g id="Layer_3" data-name="Layer 3"><path d="M13.39,21h-2V19A.67.67,0,1,0,10,19v2H8A.67.67,0,1,0,8,22.3h2v2a.67.67,0,1,0,1.34,0v-2h2a.67.67,0,1,0,0-1.34Z" style="fill:#8c8c8c"/><path d="M31.47,21.56a5.36,5.36,0,0,0-7.32-2l-2.72,1.57V15.36a3.37,3.37,0,0,0-.67-2L17.41,8.88V7a2,2,0,0,0,1.34-1.89V2a2,2,0,0,0-2-2h-12a2,2,0,0,0-2,2V5.09A2,2,0,0,0,4,7v1.9L.67,13.35a3.37,3.37,0,0,0-.67,2v13a3.35,3.35,0,0,0,3.35,3.35H14.11a5.36,5.36,0,0,0,7.28,1.9l8.11-4.69A5.37,5.37,0,0,0,31.47,21.56ZM4,2a.67.67,0,0,1,.67-.67h12a.67.67,0,0,1,.67.67V5.09a.67.67,0,0,1-.67.67h-12A.67.67,0,0,1,4,5.09V2ZM1.74,14.15,5.22,9.51a.67.67,0,0,0,.14-.4v-2H16.07V8.44H10a.67.67,0,0,0,0,1.34h6.37l3.28,4.37a2.08,2.08,0,0,1,.38,1H1.35A2.09,2.09,0,0,1,1.74,14.15ZM3.35,30.33a2,2,0,0,1-2-2v-.67H13.51a5.19,5.19,0,0,0,0,2.68Zm10.68-4H1.34V16.47H20.09v5.47L16,24.29A5.27,5.27,0,0,0,14,26.32Zm6.69,6.09a4,4,0,1,1-4-7l3.63-2.1,4,7Zm8.12-4.69-3.33,1.92-4-7,3.33-1.92a4,4,0,0,1,4,7Z" style="fill:#8c8c8c"/></g></g></svg>