<svg xmlns="http://www.w3.org/2000/svg" viewBox="0 0 34.15 33.45"><g id="Layer_2" data-name="Layer 2"><g id="Layer_3" data-name="Layer 3"><path d="M25.84,0H5.25A5.26,5.26,0,0,0,0,5.25v12a5.26,5.26,0,0,0,5.25,5.25h.23v3.19a.7.7,0,0,0,.43.65.75.75,0,0,0,.26.05.7.7,0,0,0,.49-.2l3.69-3.69H13a.7.7,0,0,0,0-1.39H10.06a.7.7,0,0,0-.49.2L6.87,24V21.79a.69.69,0,0,0-.7-.69H5.25a3.86,3.86,0,0,1-3.86-3.86v-12A3.86,3.86,0,0,1,5.25,1.39H25.84a3.87,3.87,0,0,1,3.87,3.86v6a.69.69,0,1,0,1.38,0v-6A5.26,5.26,0,0,0,25.84,0Z" style="fill:#8c8c8c"/><path d="M18,16.53a.69.69,0,0,0-.69.69h0a.69.69,0,1,0,1.38,0h0A.69.69,0,0,0,18,16.53Z" style="fill:#8c8c8c"/><path d="M14,28a2.2,2.2,0,0,0,2,2.2,2.12,2.12,0,0,0-.16.83v0a2.21,2.21,0,0,0,2.2,2.21h9.68a.75.75,0,0,0,.26,0l1.13-.45a.69.69,0,0,0,.7.66h3.6a.69.69,0,0,0,.7-.69V20.54a.69.69,0,0,0-.7-.69h-3.6a.7.7,0,0,0-.53.24l-6.1-7.38a.72.72,0,0,0-.53-.25h0a.7.7,0,0,0-.53.25l-.26.3a4.31,4.31,0,0,0-.62,4.63l1,2H18.08a2.21,2.21,0,0,0-2.2,2.21v0a2,2,0,0,0,.16.82,2.21,2.21,0,0,0-2,2.2v0a2.18,2.18,0,0,0,.6,1.51A2.23,2.23,0,0,0,14,28ZM30.54,21.9a.75.75,0,0,0,0-.15v-.51h2.22V32.07H30.54ZM15.41,28a.82.82,0,0,1,.82-.82h4.64a.7.7,0,0,0,0-1.39H16.23a.82.82,0,0,1-.82-.82v0a.82.82,0,0,1,.82-.82h4.64a.69.69,0,1,0,0-1.38H18.08a.82.82,0,0,1-.82-.82v0a.82.82,0,0,1,.82-.82h5.26a.68.68,0,0,0,.58-.32.67.67,0,0,0,0-.67l-1.43-3a2.89,2.89,0,0,1,.16-2.78l6.46,7.81V31.3l-1.52.6H18.08a.82.82,0,0,1-.82-.82v0a.82.82,0,0,1,.82-.82h2.79a.7.7,0,0,0,0-1.39H16.23a.82.82,0,0,1-.82-.82Z" style="fill:#8c8c8c"/><path d="M25.82,10.55H5.28a.7.7,0,1,0,0,1.39H25.82a.7.7,0,0,0,0-1.39Z" style="fill:#8c8c8c"/><path d="M22.11,6.11H5.28a.7.7,0,1,0,0,1.39H22.11a.7.7,0,0,0,0-1.39Z" style="fill:#8c8c8c"/><path d="M26.31,6.31a.69.69,0,0,0-1.18.49.68.68,0,0,0,.2.49.68.68,0,0,0,1,0,.7.7,0,0,0,0-1Z" style="fill:#8c8c8c"/><path d="M13,15H5.28a.7.7,0,1,0,0,1.39H13A.7.7,0,0,0,13,15Z" style="fill:#8c8c8c"/></g></g></svg>