<?xml version="1.0" encoding="UTF-8"?>
<svg width="283px" height="372px" viewBox="0 0 283 372" version="1.1"
    xmlns="http://www.w3.org/2000/svg" xmlns:xlink="http://www.w3.org/1999/xlink">
    <title>Group 46</title>
    <defs>
        <path
            d="M124.385,0.452 C57.646,2.019 2.965,56.124 0.736,122.843 L0.736,122.843 C-1.572,191.92 51.412,249.111 118.824,253.633 L118.824,253.633 C121.546,253.816 127.558,254.278 130.507,248.884 L130.507,248.884 C132.191,245.805 132.387,239.993 127.58,240 L127.58,240 L127.432,240 C63.358,240 11.759,186.583 14.742,121.851 L14.742,121.851 C17.363,64.939 62.927,18.378 119.776,14.625 L119.776,14.625 C177.706,10.801 227.034,50.74 237.972,104.621 L237.972,104.621 C238.801,108.694 243.563,110.52 246.806,107.921 L246.806,107.921 C247.191,107.615 247.589,107.308 248.005,107.002 L248.005,107.002 C250.505,105.168 251.703,102.037 251.019,99.013 L251.019,99.013 C238.204,42.567 187.753,0.42 127.43,0.416 L127.43,0.416 C126.415,0.416 125.405,0.428 124.385,0.452 L124.385,0.452 Z"
            id="path-1"></path>
        <path
            d="M96.648,0.706 C93.433,2.213 90.874,4.036 87.405,6.179 L87.405,6.179 C85.193,7.545 82.327,9.551 81.02,11.798 L81.02,11.798 C66.49,36.77 42.648,55.654 14.247,63.704 L14.247,63.704 C14.247,63.704 9.025,65.271 4.346,69.951 L4.346,69.951 C1.266,73.03 -0.065,76.7 0.387,78.949 L0.387,78.949 C0.46,79.542 1.054,80.712 1.763,80.61 L1.763,80.61 C46.357,74.149 83.412,44.475 100.322,4.242 L100.322,4.242 C101.121,2.344 99.623,0.441 97.806,0.441 L97.806,0.441 C97.428,0.441 97.036,0.523 96.648,0.706 L96.648,0.706 Z"
            id="path-3"></path>
        <path
            d="M17.447,11.434 C6.095,21.04 1.293,36.838 0.455,48.212 L0.455,48.212 C0.32,50.038 2.615,50.994 3.774,49.579 L3.774,49.579 C6.81,45.879 12.478,41.237 22.831,38.361 L22.831,38.361 C42.217,32.975 51.91,23.281 52.986,0.666 L52.986,0.666 C52.986,0.666 52.476,0.641 51.561,0.641 L51.561,0.641 C46.536,0.641 29.293,1.411 17.447,11.434 L17.447,11.434 Z"
            id="path-5"></path>
        <path
            d="M13.603,25.555 C6.965,38.828 -4.096,49.152 3.279,55.79 L3.279,55.79 C8.729,60.695 15.376,67.201 18.48,70.267 L18.48,70.267 C24.442,76.846 29.213,84.536 35.815,90.521 L35.815,90.521 C41.082,95.295 47.404,97.494 53.979,99.169 L53.979,99.169 C55.248,99.492 61.068,100.413 66.066,99.457 L66.066,99.457 C65.652,99.152 53.564,89.114 48.923,80.328 L48.923,80.328 C45.889,74.584 43.41,68.512 42.224,62.145 L42.224,62.145 C41.212,55.738 41.265,49.265 42.206,42.99 L42.206,42.99 C42.404,41.665 43.639,40.752 44.964,40.95 L44.964,40.95 C46.186,41.134 47.058,42.2 47.03,43.403 L47.03,43.403 L47.027,43.526 C46.894,49.409 47.233,55.215 48.598,60.81 L48.598,60.81 C50.041,66.368 52.507,71.538 55.328,76.497 L55.328,76.497 C62.511,89.114 71.988,93.901 73.159,94.7 L73.159,94.7 C73.173,94.708 73.188,94.718 73.203,94.727 L73.203,94.727 C73.458,94.109 73.636,93.428 73.706,92.662 L73.706,92.662 C74.086,88.357 73.336,74.963 80.611,60.848 L80.611,60.848 C80.68,60.71 80.735,60.58 80.806,60.443 L80.806,60.443 C80.956,60.151 81.086,59.853 81.197,59.55 L81.197,59.55 C90.216,40.705 106.297,35.09 111.684,28.504 L111.684,28.504 C118.32,20.393 111.684,2.694 91.772,7.118 L91.772,7.118 C71.862,11.543 65.961,6.38 49.737,1.219 L49.737,1.219 C47.623,0.547 45.557,0.237 43.55,0.236 L43.55,0.236 C30.165,0.234 19.375,14.01 13.603,25.555 L13.603,25.555 Z"
            id="path-7"></path>
        <path
            d="M0.509,5.79 C0.265,7.255 0.159,8.725 0.159,9.89 L0.159,9.89 C0.159,41.532 15.885,69.443 39.93,86.36 L39.93,86.36 C39.93,86.36 58.181,100.132 86.821,102.879 L86.821,102.879 C87.736,102.966 88.084,101.686 87.244,101.314 L87.244,101.314 C83.388,99.587 79.706,97.548 76.181,95.315 L76.181,95.315 C69.578,91.035 63.544,85.982 58.155,80.254 L58.155,80.254 C55.469,77.379 52.999,74.281 50.786,70.961 L50.786,70.961 C48.598,67.659 46.671,64.104 45.374,60.166 L45.374,60.166 C44.89,58.701 45.485,57.012 46.842,56.281 L46.842,56.281 C48.582,55.342 50.639,56.153 51.345,57.863 L51.345,57.863 L51.386,57.965 C53.949,64.233 58.493,70.005 63.547,75.077 L63.547,75.077 C68.622,80.182 74.352,84.719 80.501,88.462 L80.501,88.462 C86.612,92.236 93.167,95.34 99.906,96.997 L99.906,96.997 C103.266,97.816 114.633,100.405 120.349,96.737 L120.349,96.737 C130.145,85.262 125.213,71.447 115.358,61.401 L115.358,61.401 C104.218,50.045 90.926,46.428 76.002,42.692 L76.002,42.692 C61.201,38.987 52.016,31.049 42.719,19.309 L42.719,19.309 C36.426,11.36 23.716,0.512 12.33,0.512 L12.33,0.512 C8.069,0.512 3.993,2.031 0.509,5.79 L0.509,5.79 Z"
            id="path-9"></path>
        <path
            d="M57.876,2.152 C50.612,13.427 33.204,19.093 23.011,26.541 L23.011,26.541 C14.784,32.554 7.286,40.164 4.168,50.101 L4.168,50.101 C2.104,56.691 0.521901965,66.232 0.521901965,70.332 L0.521901965,70.332 C0.521901965,75.35 0.403,81.354 8.457,89.792 L8.457,89.792 C12.562,93.208 17.745,98.968 22.31,105.528 L22.31,105.528 L22.309,105.535 C22.309,105.535 22.363,105.604 22.439,105.704 L22.439,105.704 C23.975,107.928 27.536,112.907 29.116,120.169 L29.116,120.169 C30.558,118.307 31.944,116.387 33.154,114.333 L33.154,114.333 C36.182,109.323 38.661,103.929 40.401,98.285 L40.401,98.285 C42.179,92.656 43.304,86.8 43.759,80.86 L43.759,80.86 C44.201,74.91 43.881,68.915 43.194,62.904 L43.194,62.904 L43.185,62.822 C43.028,61.445 44.017,60.202 45.393,60.044 L45.393,60.044 C46.671,59.897 47.834,60.74 48.12,61.964 L48.12,61.964 C49.585,68.203 50.33,74.644 50.35,81.132 L50.35,81.132 C50.27,87.621 49.316,94.112 47.598,100.409 L47.598,100.409 C45.825,106.689 43.313,112.792 39.921,118.428 L39.921,118.428 C38.822,120.321 36.074,123.993 34.137,126.451 L34.137,126.451 C32.073,129.07 35.091,132.807 37.986,131.154 L37.986,131.154 C38.008,131.142 38.031,131.128 38.054,131.115 L38.054,131.115 C64.29,115.601 80.409,85.647 80.409,52.889 L80.409,52.889 C80.409,34.113 74.828,16.672 65.299,2.028 L65.299,2.028 C64.44,0.708 63.062,0.061 61.675,0.061 L61.675,0.061 C60.226,0.061 58.766,0.768 57.876,2.152 L57.876,2.152 Z"
            id="path-11"></path>
        <path
            d="M0.74,0.028 L0.74,42.15 L13.538,42.15 C17.482,42.15 20.8,41.156 23.487,39.17 L23.487,39.17 C26.174,37.182 27.518,34.146 27.518,30.057 L27.518,30.057 C27.518,27.82 26.869,25.852 25.573,24.155 L25.573,24.155 C24.277,22.458 22.482,21.126 20.189,20.162 L20.189,20.162 C21.882,19.2 23.187,17.915 24.108,16.313 L24.108,16.313 C25.028,14.714 25.488,12.813 25.488,10.615 L25.488,10.615 C25.488,7.142 24.305,4.511 21.937,2.718 L21.937,2.718 C19.569,0.924 16.244,0.028 11.957,0.028 L11.957,0.028 L0.74,0.028 Z M7.335,6.508 L12.24,6.508 C14.269,6.508 15.858,6.97 17.004,7.897 L17.004,7.897 C18.15,8.822 18.724,10.211 18.724,12.063 L18.724,12.063 C18.724,13.759 18.245,15.168 17.285,16.285 L17.285,16.285 C16.329,17.404 14.907,17.963 13.029,17.963 L13.029,17.963 L7.335,17.963 L7.335,6.508 Z M7.335,24.445 L12.804,24.445 C15.059,24.445 16.948,24.889 18.471,25.776 L18.471,25.776 C19.992,26.663 20.752,28.11 20.752,30.116 L20.752,30.116 C20.752,32.006 20.057,33.441 18.667,34.426 L18.667,34.426 C17.276,35.409 15.473,35.898 13.254,35.898 L13.254,35.898 L7.335,35.898 L7.335,24.445 Z"
            id="path-13"></path>
        <path
            d="M10.61,3.514 C7.397,5.482 4.851,8.114 2.972,11.413 L2.972,11.413 C1.092,14.711 0.152,18.289 0.152,22.145 L0.152,22.145 C0.152,26.081 1.092,29.687 2.972,32.967 L2.972,32.967 C4.851,36.246 7.397,38.839 10.61,40.748 L10.61,40.748 C13.824,42.657 17.328,43.612 21.124,43.612 L21.124,43.612 C24.882,43.612 28.377,42.647 31.611,40.719 L31.611,40.719 C34.842,38.79 37.408,36.186 39.307,32.909 L39.307,32.909 C41.203,29.631 42.152,26.043 42.152,22.145 L42.152,22.145 C42.152,18.327 41.195,14.759 39.278,11.442 L39.278,11.442 C37.36,8.125 34.796,5.482 31.583,3.514 L31.583,3.514 C28.369,1.547 24.882,0.563 21.124,0.563 L21.124,0.563 C17.328,0.563 13.824,1.547 10.61,3.514 L10.61,3.514 Z M14.05,35.106 C11.851,33.757 10.112,31.945 8.834,29.669 L8.834,29.669 C7.557,27.392 6.917,24.885 6.917,22.145 L6.917,22.145 C6.917,19.409 7.546,16.88 8.806,14.566 L8.806,14.566 C10.065,12.251 11.775,10.419 13.936,9.069 L13.936,9.069 C16.097,7.72 18.493,7.044 21.124,7.044 L21.124,7.044 C23.718,7.044 26.104,7.72 28.284,9.069 L28.284,9.069 C30.464,10.419 32.192,12.251 33.47,14.566 L33.47,14.566 C34.748,16.88 35.388,19.409 35.388,22.145 L35.388,22.145 C35.388,24.885 34.757,27.402 33.499,29.696 L33.499,29.696 C32.24,31.992 30.539,33.806 28.397,35.136 L28.397,35.136 C26.255,36.467 23.886,37.132 21.293,37.132 L21.293,37.132 C18.662,37.132 16.248,36.457 14.05,35.106 L14.05,35.106 Z"
            id="path-15"></path>
        <path
            d="M5.471,4.179 C3.197,6.284 2.061,9.05 2.061,12.484 L2.061,12.484 C2.061,14.837 2.614,16.794 3.723,18.355 L3.723,18.355 C4.833,19.918 6.156,21.133 7.698,22.002 L7.698,22.002 C9.238,22.868 11.173,23.747 13.504,24.634 L13.504,24.634 C15.759,25.52 17.515,26.506 18.776,27.584 L18.776,27.584 C20.034,28.666 20.664,30.014 20.664,31.635 L20.664,31.635 C20.664,33.679 19.912,35.193 18.409,36.177 L18.409,36.177 C16.905,37.162 15.158,37.652 13.167,37.652 L13.167,37.652 C11.549,37.652 9.792,37.297 7.894,36.582 L7.894,36.582 C5.995,35.869 4.352,34.973 2.962,33.893 L2.962,33.893 L0.03,39.158 C1.909,40.546 4.052,41.637 6.457,42.426 L6.457,42.426 C8.863,43.217 11.307,43.612 13.785,43.612 L13.785,43.612 C16.605,43.612 19.048,43.072 21.116,41.992 L21.116,41.992 C23.181,40.912 24.76,39.466 25.85,37.652 L25.85,37.652 C26.94,35.839 27.485,33.816 27.485,31.578 L27.485,31.578 C27.485,29.11 27.014,27.064 26.076,25.445 L26.076,25.445 C25.137,23.825 23.943,22.542 22.496,21.596 L22.496,21.596 C21.05,20.652 19.311,19.813 17.281,19.079 L17.281,19.079 C14.614,18.038 12.536,16.988 11.051,15.926 L11.051,15.926 C9.566,14.864 8.825,13.544 8.825,11.962 L8.825,11.962 C8.825,10.342 9.417,9.068 10.602,8.142 L10.602,8.142 C11.784,7.218 13.391,6.755 15.421,6.755 L15.421,6.755 C18.164,6.755 21.302,7.7 24.836,9.59 L24.836,9.59 L27.316,4.441 C25.55,3.283 23.643,2.386 21.594,1.751 L21.594,1.751 C19.545,1.113 17.169,0.795 14.462,0.795 L14.462,0.795 C10.741,0.95 7.744,2.078 5.471,4.179 L5.471,4.179 Z"
            id="path-17"></path>
        <path
            d="M5.69,4.179 C3.415,6.284 2.279,9.05 2.279,12.484 L2.279,12.484 C2.279,14.837 2.834,16.794 3.943,18.355 L3.943,18.355 C5.051,19.918 6.376,21.133 7.917,22.002 L7.917,22.002 C9.458,22.868 11.392,23.747 13.724,24.634 L13.724,24.634 C15.979,25.52 17.735,26.506 18.996,27.584 L18.996,27.584 C20.253,28.666 20.884,30.014 20.884,31.635 L20.884,31.635 C20.884,33.679 20.132,35.193 18.629,36.177 L18.629,36.177 C17.125,37.162 15.377,37.652 13.386,37.652 L13.386,37.652 C11.77,37.652 10.011,37.297 8.114,36.582 L8.114,36.582 C6.216,35.869 4.571,34.973 3.18,33.893 L3.18,33.893 L0.25,39.158 C2.128,40.546 4.271,41.637 6.676,42.426 L6.676,42.426 C9.081,43.217 11.525,43.612 14.005,43.612 L14.005,43.612 C16.825,43.612 19.267,43.072 21.335,41.992 L21.335,41.992 C23.401,40.912 24.979,39.466 26.07,37.652 L26.07,37.652 C27.161,35.839 27.704,33.816 27.704,31.578 L27.704,31.578 C27.704,29.11 27.234,27.064 26.296,25.445 L26.296,25.445 C25.355,23.825 24.162,22.542 22.717,21.596 L22.717,21.596 C21.27,20.652 19.531,19.813 17.501,19.079 L17.501,19.079 C14.833,18.038 12.755,16.988 11.271,15.926 L11.271,15.926 C9.785,14.864 9.045,13.544 9.045,11.962 L9.045,11.962 C9.045,10.342 9.636,9.068 10.821,8.142 L10.821,8.142 C12.004,7.218 13.611,6.755 15.64,6.755 L15.64,6.755 C18.384,6.755 21.522,7.7 25.057,9.59 L25.057,9.59 L27.537,4.441 C25.77,3.283 23.862,2.386 21.814,1.751 L21.814,1.751 C19.766,1.113 17.389,0.795 14.682,0.795 L14.682,0.795 C10.961,0.95 7.964,2.078 5.69,4.179 L5.69,4.179 Z"
            id="path-19"></path>
        <path
            d="M10.659,3.514 C7.446,5.482 4.9,8.114 3.021,11.413 L3.021,11.413 C1.141,14.711 0.202,18.289 0.202,22.145 L0.202,22.145 C0.202,26.081 1.141,29.687 3.021,32.967 L3.021,32.967 C4.9,36.246 7.446,38.839 10.659,40.748 L10.659,40.748 C13.873,42.657 17.378,43.612 21.174,43.612 L21.174,43.612 C24.932,43.612 28.426,42.647 31.66,40.719 L31.66,40.719 C34.892,38.79 37.458,36.186 39.356,32.909 L39.356,32.909 C41.251,29.631 42.203,26.043 42.203,22.145 L42.203,22.145 C42.203,18.327 41.244,14.759 39.328,11.442 L39.328,11.442 C37.411,8.125 34.845,5.482 31.633,3.514 L31.633,3.514 C28.418,1.547 24.932,0.563 21.174,0.563 L21.174,0.563 C17.378,0.563 13.873,1.547 10.659,3.514 L10.659,3.514 Z M14.098,35.106 C11.9,33.757 10.162,31.945 8.885,29.669 L8.885,29.669 C7.607,27.392 6.969,24.885 6.969,22.145 L6.969,22.145 C6.969,19.409 7.596,16.88 8.856,14.566 L8.856,14.566 C10.115,12.251 11.824,10.419 13.985,9.069 L13.985,9.069 C16.147,7.72 18.542,7.044 21.174,7.044 L21.174,7.044 C23.767,7.044 26.153,7.72 28.334,9.069 L28.334,9.069 C30.513,10.419 32.242,12.251 33.521,14.566 L33.521,14.566 C34.798,16.88 35.437,19.409 35.437,22.145 L35.437,22.145 C35.437,24.885 34.808,27.402 33.548,29.696 L33.548,29.696 C32.29,31.992 30.589,33.806 28.447,35.136 L28.447,35.136 C26.304,36.467 23.937,37.132 21.344,37.132 L21.344,37.132 C18.713,37.132 16.299,36.457 14.098,35.106 L14.098,35.106 Z"
            id="path-21"></path>
        <path
            d="M6.016,2.092 C4.418,3.068 3.169,4.416 2.267,6.136 L2.267,6.136 C1.366,7.855 0.915,9.79 0.915,11.943 L0.915,11.943 C0.915,13.953 1.361,15.793 2.253,17.463 L2.253,17.463 C3.145,19.132 4.418,20.46 6.074,21.446 L6.074,21.446 C7.73,22.429 9.644,22.923 11.82,22.923 L11.82,22.923 C13.053,22.923 14.197,22.727 15.245,22.335 L15.245,22.335 C16.293,21.943 17.159,21.515 17.845,21.052 L17.845,21.052 L16.641,18.428 C15.23,19.533 13.574,20.087 11.673,20.087 L11.673,20.087 C10.125,20.087 8.758,19.73 7.572,19.016 L7.572,19.016 C6.385,18.303 5.475,17.311 4.839,16.044 L4.839,16.044 C4.202,14.778 3.885,13.359 3.885,11.793 L3.885,11.793 C3.885,10.263 4.233,8.861 4.927,7.584 L4.927,7.584 C5.623,6.307 6.554,5.296 7.719,4.551 L7.719,4.551 C8.885,3.807 10.154,3.435 11.526,3.435 L11.526,3.435 C13.171,3.435 14.808,3.999 16.435,5.125 L16.435,5.125 L17.58,2.379 C16.758,1.857 15.827,1.434 14.789,1.112 L14.789,1.112 C13.75,0.79 12.633,0.631 11.44,0.631 L11.44,0.631 C9.419,0.631 7.611,1.118 6.016,2.092 L6.016,2.092 Z"
            id="path-23"></path>
        <path
            d="M5.398,2.092 C3.803,3.068 2.552,4.416 1.652,6.136 L1.652,6.136 C0.751,7.855 0.299,9.79 0.299,11.943 L0.299,11.943 C0.299,13.953 0.744,15.793 1.637,17.463 L1.637,17.463 C2.529,19.132 3.803,20.46 5.457,21.446 L5.457,21.446 C7.113,22.429 9.029,22.923 11.204,22.923 L11.204,22.923 C12.438,22.923 13.579,22.727 14.629,22.335 L14.629,22.335 C15.675,21.943 16.543,21.515 17.229,21.052 L17.229,21.052 L16.025,18.428 C14.613,19.533 12.957,20.087 11.055,20.087 L11.055,20.087 C9.509,20.087 8.143,19.73 6.956,19.016 L6.956,19.016 C5.77,18.303 4.86,17.311 4.222,16.044 L4.222,16.044 C3.587,14.778 3.267,13.359 3.267,11.793 L3.267,11.793 C3.267,10.263 3.615,8.861 4.311,7.584 L4.311,7.584 C5.006,6.307 5.937,5.296 7.102,4.551 L7.102,4.551 C8.269,3.807 9.538,3.435 10.91,3.435 L10.91,3.435 C12.555,3.435 14.192,3.999 15.818,5.125 L15.818,5.125 L16.964,2.379 C16.142,1.857 15.211,1.434 14.172,1.112 L14.172,1.112 C13.134,0.79 12.017,0.631 10.822,0.631 L10.822,0.631 C8.803,0.631 6.996,1.118 5.398,2.092 L5.398,2.092 Z"
            id="path-25"></path>
    </defs>
    <g id="Page-1" stroke="none" stroke-width="1" fill="none" fill-rule="evenodd">
        <g id="Group-46">
            <g id="Group-3" transform="translate(3.000000, 0.000000)">
                <mask id="mask-2" fill="white">
                    <use xlink:href="#path-1"></use>
                </mask>
                <g id="Clip-2"></g>
                <polygon id="Fill-1" fill="#F9B1A6" mask="url(#mask-2)"
                    points="-4.337 258.73 256.209 258.73 256.209 -4.584 -4.337 -4.584"></polygon>
            </g>
            <g id="Group-6" transform="translate(147.000000, 172.000000)">
                <mask id="mask-4" fill="white">
                    <use xlink:href="#path-3"></use>
                </mask>
                <g id="Clip-5"></g>
                <polygon id="Fill-4" fill="#F9B1A6" mask="url(#mask-4)"
                    points="-4.699 85.616 105.543 85.616 105.543 -4.559 -4.699 -4.559"></polygon>
            </g>
            <g id="Group-9" transform="translate(230.000000, 114.000000)">
                <mask id="mask-6" fill="white">
                    <use xlink:href="#path-5"></use>
                </mask>
                <g id="Clip-8"></g>
                <polygon id="Fill-7" fill="#11784B" mask="url(#mask-6)"
                    points="-4.551 55.259 57.986 55.259 57.986 -4.36 -4.551 -4.36"></polygon>
            </g>
            <g id="Group-12" transform="translate(58.000000, 45.000000)">
                <mask id="mask-8" fill="white">
                    <use xlink:href="#path-7"></use>
                </mask>
                <g id="Clip-11"></g>
                <polygon id="Fill-10" fill="#F6978F" mask="url(#mask-8)"
                    points="-4.163 104.879 119.172 104.879 119.172 -4.763 -4.163 -4.763"></polygon>
            </g>
            <g id="Group-15" transform="translate(33.000000, 112.000000)">
                <mask id="mask-10" fill="white">
                    <use xlink:href="#path-9"></use>
                </mask>
                <g id="Clip-14"></g>
                <polygon id="Fill-13" fill="#F48073" mask="url(#mask-10)"
                    points="-4.842 107.883 130.674 107.883 130.674 -4.488 -4.842 -4.488"></polygon>
            </g>
            <g id="Group-18" transform="translate(140.000000, 69.000000)">
                <mask id="mask-12" fill="white">
                    <use xlink:href="#path-11"></use>
                </mask>
                <g id="Clip-17"></g>
                <polygon id="Fill-16" fill="#F48073" mask="url(#mask-12)"
                    points="-4.478 136.562 85.409 136.562 85.409 -4.938 -4.478 -4.938"></polygon>
            </g>
            <g id="Group-21" transform="translate(0.000000, 284.000000)">
                <mask id="mask-14" fill="white">
                    <use xlink:href="#path-13"></use>
                </mask>
                <g id="Clip-20"></g>
                <polygon id="Fill-19" fill="#F48073" mask="url(#mask-14)"
                    points="-4.26 47.15 32.519 47.15 32.519 -4.972 -4.26 -4.972"></polygon>
            </g>
            <polygon id="Fill-22" fill="#F48073"
                points="37.6648 284.0269 37.6648 326.1499 64.4988 326.1499 64.4988 319.6689 44.2608 319.6689 44.2608 284.0269"></polygon>
            <g id="Group-25" transform="translate(71.000000, 283.000000)">
                <mask id="mask-16" fill="white">
                    <use xlink:href="#path-15"></use>
                </mask>
                <g id="Clip-24"></g>
                <polygon id="Fill-23" fill="#F48073" mask="url(#mask-16)"
                    points="-4.848 48.612 47.152 48.612 47.152 -4.437 -4.848 -4.437"></polygon>
            </g>
            <g id="Group-28" transform="translate(120.000000, 283.000000)">
                <mask id="mask-18" fill="white">
                    <use xlink:href="#path-17"></use>
                </mask>
                <g id="Clip-27"></g>
                <polygon id="Fill-26" fill="#F48073" mask="url(#mask-18)"
                    points="-4.97 48.612 32.485 48.612 32.485 -4.205 -4.97 -4.205"></polygon>
            </g>
            <g id="Group-31" transform="translate(154.000000, 283.000000)">
                <mask id="mask-20" fill="white">
                    <use xlink:href="#path-19"></use>
                </mask>
                <g id="Clip-30"></g>
                <polygon id="Fill-29" fill="#F48073" mask="url(#mask-20)"
                    points="-4.75 48.612 32.705 48.612 32.705 -4.205 -4.75 -4.205"></polygon>
            </g>
            <g id="Group-34" transform="translate(189.000000, 283.000000)">
                <mask id="mask-22" fill="white">
                    <use xlink:href="#path-21"></use>
                </mask>
                <g id="Clip-33"></g>
                <polygon id="Fill-32" fill="#F48073" mask="url(#mask-22)"
                    points="-4.797 48.612 47.203 48.612 47.203 -4.437 -4.797 -4.437"></polygon>
            </g>
            <polygon id="Fill-35" fill="#F48073"
                points="282.6736 282.523 261.8706 312.264 241.4066 282.523 241.3496 282.523 241.3496 326.151 247.7196 326.151 247.7196 302.773 261.7586 322.736 261.8706 322.736 276.2466 301.79 276.2466 326.151 282.7866 326.151 282.7866 282.523"></polygon>
            <g id="Group-38" transform="translate(89.000000, 348.000000)">
                <mask id="mask-24" fill="white">
                    <use xlink:href="#path-23"></use>
                </mask>
                <g id="Clip-37"></g>
                <polygon id="Fill-36" fill="#F48073" mask="url(#mask-24)"
                    points="-4.085 27.923 22.845 27.923 22.845 -4.369 -4.085 -4.369"></polygon>
            </g>
            <polygon id="Fill-39" fill="#F48073"
                points="112.6654 348.871 112.6654 370.681 126.3324 370.681 126.3324 367.845 115.5154 367.845 115.5154 348.871"></polygon>
            <polygon id="Fill-40" fill="#F48073"
                points="131.977 370.682 134.827 370.682 134.827 348.872 131.977 348.872"></polygon>
            <polygon id="Fill-41" fill="#F48073"
                points="141.9685 348.2068 141.9685 370.6808 144.8495 370.6808 144.7905 355.1458 160.3985 371.4048 160.4865 371.4048 160.4865 348.8708 157.6335 348.8708 157.6945 364.6458 142.1165 348.2068"></polygon>
            <polygon id="Fill-42" fill="#F48073"
                points="167.628 370.682 170.478 370.682 170.478 348.872 167.628 348.872"></polygon>
            <g id="Group-45" transform="translate(176.000000, 348.000000)">
                <mask id="mask-26" fill="white">
                    <use xlink:href="#path-25"></use>
                </mask>
                <g id="Clip-44"></g>
                <polygon id="Fill-43" fill="#F48073" mask="url(#mask-26)"
                    points="-4.701 27.923 22.229 27.923 22.229 -4.369 -4.701 -4.369"></polygon>
            </g>
        </g>
    </g>
</svg>